<svg width="660" height="660" viewBox="0 0 660 660" fill="none" xmlns="http://www.w3.org/2000/svg">
<path d="M30 457C30 450.373 35.3726 445 42 445H178C184.627 445 190 450.373 190 457V617C190 623.627 184.627 629 178 629H42C35.3726 629 30 623.627 30 617V457Z" fill="#2D8BBA"/>
<path d="M240 42C240 35.3726 245.373 30 252 30H388C394.627 30 400 35.3726 400 42V78C400 84.6274 394.627 90 388 90H252C245.373 90 240 84.6274 240 78V42Z" fill="#2D8BBA"/>
<path d="M30 42C30 35.3726 35.3726 30 42 30H178C184.627 30 190 35.3726 190 42V393C190 399.627 184.627 405 178 405H42C35.3726 405 30 399.627 30 393V42Z" fill="#2F5F98"/>
<path d="M240 496C240 489.373 245.373 484 252 484H388C394.627 484 400 489.373 400 496V624C400 630.627 394.627 636 388 636H252C245.373 636 240 630.627 240 624V496Z" fill="#41B8D5"/>
<path d="M240 142C240 135.373 245.373 130 252 130H388C394.627 130 400 135.373 400 142V432C400 438.627 394.627 444 388 444H252C245.373 444 240 438.627 240 432V142Z" fill="#2D8BBA"/>
<path d="M450 42C450 35.3726 455.373 30 462 30H598C604.627 30 610 35.3726 610 42V201C610 207.627 604.627 213 598 213H462C455.373 213 450 207.627 450 201V42Z" fill="#41B8D5"/>
<path d="M450 588C450 581.373 455.373 576 462 576H598C604.627 576 610 581.373 610 588V624C610 630.627 604.627 636 598 636H462C455.373 636 450 630.627 450 624V588Z" fill="#6CE5E8"/>
<path d="M450 265C450 258.373 455.373 253 462 253H598C604.627 253 610 258.373 610 265V524C610 530.627 604.627 536 598 536H462C455.373 536 450 530.627 450 524V265Z" fill="#6CE5E8"/>
</svg>
